<svg id="wave" style="transform:rotate(180deg); transition: 0.3s" viewBox="0 0 1440 390" version="1.1" xmlns="http://www.w3.org/2000/svg"><defs><linearGradient id="sw-gradient-0" x1="0" x2="0" y1="1" y2="0"><stop stop-color="rgba(30, 58, 138, 1)" offset="0%"></stop><stop stop-color="rgba(30, 58, 138, 1)" offset="100%"></stop></linearGradient></defs><path style="transform:translate(0, 0px); opacity:1" fill="url(#sw-gradient-0)" d="M0,78L48,104C96,130,192,182,288,208C384,234,480,234,576,195C672,156,768,78,864,52C960,26,1056,52,1152,110.5C1248,169,1344,260,1440,273C1536,286,1632,221,1728,162.5C1824,104,1920,52,2016,65C2112,78,2208,156,2304,195C2400,234,2496,234,2592,221C2688,208,2784,182,2880,201.5C2976,221,3072,286,3168,260C3264,234,3360,117,3456,65C3552,13,3648,26,3744,39C3840,52,3936,65,4032,84.5C4128,104,4224,130,4320,123.5C4416,117,4512,78,4608,71.5C4704,65,4800,91,4896,97.5C4992,104,5088,91,5184,97.5C5280,104,5376,130,5472,117C5568,104,5664,52,5760,58.5C5856,65,5952,130,6048,156C6144,182,6240,169,6336,156C6432,143,6528,130,6624,117C6720,104,6816,91,6864,84.5L6912,78L6912,390L6864,390C6816,390,6720,390,6624,390C6528,390,6432,390,6336,390C6240,390,6144,390,6048,390C5952,390,5856,390,5760,390C5664,390,5568,390,5472,390C5376,390,5280,390,5184,390C5088,390,4992,390,4896,390C4800,390,4704,390,4608,390C4512,390,4416,390,4320,390C4224,390,4128,390,4032,390C3936,390,3840,390,3744,390C3648,390,3552,390,3456,390C3360,390,3264,390,3168,390C3072,390,2976,390,2880,390C2784,390,2688,390,2592,390C2496,390,2400,390,2304,390C2208,390,2112,390,2016,390C1920,390,1824,390,1728,390C1632,390,1536,390,1440,390C1344,390,1248,390,1152,390C1056,390,960,390,864,390C768,390,672,390,576,390C480,390,384,390,288,390C192,390,96,390,48,390L0,390Z"></path></svg>